<svg xmlns="http://www.w3.org/2000/svg" width="26" height="26" id="window"><g transform="translate(0 -1026.362)"><circle cx="13" cy="1039.362" r="13" fill="#3a6c87"></circle><path style="line-height:normal;text-indent:0;text-align:start;text-decoration-line:none;text-decoration-style:solid;text-decoration-color:#000;text-transform:none;block-progression:tb;isolation:auto;mix-blend-mode:normal" fill="#2f4b6c" d="M11.947 25.947A13 13 0 0 0 13 26a13 13 0 0 0 .92-.033 13 13 0 0 0 1.289-.156 13 13 0 0 0 1.268-.286 13 13 0 0 0 1.234-.408 13 13 0 0 0 1.185-.531 13 13 0 0 0 1.127-.647 13 13 0 0 0 1.057-.755 13 13 0 0 0 .977-.858 13 13 0 0 0 .886-.951 13 13 0 0 0 .786-1.035 13 13 0 0 0 .68-1.108 13 13 0 0 0 .566-1.17 13 13 0 0 0 .445-1.22 13 13 0 0 0 .32-1.26 13 13 0 0 0 .196-1.285A13 13 0 0 0 26 13a13 13 0 0 0-.033-.92 13 13 0 0 0-.016-.129L21 7H5v12l6.947 6.947z" color="#000" font-family="sans-serif" font-weight="400" transform="translate(0 1026.362)"></path><path style="line-height:normal;text-indent:0;text-align:start;text-decoration-line:none;text-decoration-style:solid;text-decoration-color:#000;text-transform:none;block-progression:tb;isolation:auto;mix-blend-mode:normal" fill="#fff" d="M0 2v12h16V2H0Zm1 1h8v1H1V3Zm9 0h1v1h-1V3zm2 0h1v1h-1V3zm2 0h1v1h-1V3zM1 5h14v8H1V5Zm8.045.777-2.984 6 .894.446 2.984-6-.894-.446Zm-4.399.87L2.293 9l2.353 2.354.708-.708L3.707 9l1.647-1.646-.708-.708Zm6.708 0-.708.707L12.293 9l-1.647 1.646.708.708L13.707 9l-2.353-2.354Z" color="#000" font-family="sans-serif" font-weight="400" overflow="visible" transform="translate(5 1031.362)"></path></g></svg>